<svg id="Layer_1" data-name="Layer 1" xmlns="http://www.w3.org/2000/svg" xmlns:xlink="http://www.w3.org/1999/xlink" viewBox="0 0 1920 1080"><defs><style>.cls-1,.cls-2{fill:#fff;}.cls-1,.cls-14{fill-rule:evenodd;}.cls-3{fill:#ffb8b8;}.cls-4{fill:#2f2e41;}.cls-5{fill:#6c63ff;}.cls-6{fill:#3f3d56;}.cls-7{mask:url(#mask);}.cls-8{opacity:0.8;}.cls-9{fill:url(#linear-gradient);}.cls-10{fill:url(#linear-gradient-2);}.cls-11{fill:url(#linear-gradient-3);}.cls-12{fill:url(#linear-gradient-4);}.cls-13{fill:url(#linear-gradient-5);}.cls-14{fill:url(#linear-gradient-6);}.cls-15{fill:#f2f2f2;}</style><mask id="mask" x="-20.1" y="-7" width="1936.79" height="1104.88" maskUnits="userSpaceOnUse"><g id="a"><path class="cls-1" d="M1916.7-7H-20.1V1097.88H1916.7Zm-253,127.49H239.18V927.9H1663.66V120.48Z"/></g></mask><linearGradient id="linear-gradient" x1="1046.32" y1="406.33" x2="-403.79" y2="406.33" gradientTransform="translate(612.04 602.4)" gradientUnits="userSpaceOnUse"><stop offset="0" stop-opacity="0.01"/><stop offset="0.14"/><stop offset="0.49"/><stop offset="0.85"/><stop offset="1" stop-opacity="0.01"/></linearGradient><linearGradient id="linear-gradient-2" x1="978.74" y1="1385.17" x2="-471.37" y2="1385.17" gradientTransform="matrix(1, 0, 0, -1, 539.04, 2402.4)" gradientUnits="userSpaceOnUse"><stop offset="0" stop-color="#fff" stop-opacity="0.01"/><stop offset="0.85"/><stop offset="1" stop-opacity="0.01"/></linearGradient><linearGradient id="linear-gradient-3" x1="762.44" y1="1746.08" x2="-687.67" y2="1746.08" gradientTransform="translate(1126.24 2763.31) rotate(180)" xlink:href="#linear-gradient-2"/><linearGradient id="linear-gradient-4" x1="352.8" y1="2377.16" x2="464.27" y2="1426.13" gradientTransform="matrix(1, 0, 0, -1, 539.04, 2402.4)" gradientUnits="userSpaceOnUse"><stop offset="0" stop-color="#f4f7fa"/><stop offset="1" stop-color="#eceef1"/></linearGradient><linearGradient id="linear-gradient-5" x1="-527.6" y1="1414.92" x2="1346.72" y2="1414.92" gradientTransform="matrix(1, 0, 0, -1, 539.04, 2402.4)" gradientUnits="userSpaceOnUse"><stop offset="0" stop-color="#c9cccf"/><stop offset="0.03" stop-color="#d9dee3"/><stop offset="0.09" stop-color="#f1f4f7"/><stop offset="0.2" stop-color="#e1e5e9"/><stop offset="0.28" stop-color="#d9dbde"/><stop offset="0.41" stop-color="#d6d8db"/><stop offset="0.6" stop-color="#d6d8db"/><stop offset="0.67" stop-color="#d9dbde"/><stop offset="0.74" stop-color="#e1e5e9"/><stop offset="0.88" stop-color="#f1f4f7"/><stop offset="0.97" stop-color="#d9dee3"/><stop offset="1" stop-color="#c9cccf"/></linearGradient><linearGradient id="linear-gradient-6" x1="409.26" y1="1412.09" x2="409.26" y2="1389.42" gradientTransform="matrix(1, 0, 0, -1, 539.04, 2402.4)" gradientUnits="userSpaceOnUse"><stop offset="0" stop-color="#f1f3f5"/><stop offset="1" stop-color="#a9adb1"/></linearGradient></defs><title>Artboard 1</title><rect class="cls-2" x="230" y="116" width="1454" height="826"/><path class="cls-3" d="M1487.33,778.57c7.33-2.48,10.32-8.54,6.67-13.54a10.75,10.75,0,0,0-1.37-1.52l34.54-114.26-32.23-.29-24,112.82c-6.27,3.63-7,10-1.7,14.31,4.46,3.57,11.93,4.6,18.07,2.48Z"/><path class="cls-3" d="M1644.3,764.34c6-3.81,6.29-10.2.7-14.28a13.71,13.71,0,0,0-1.94-1.18l-14.83-116.23-31,6,24.34,112.78c-4.48,4.7-2.53,11,4.37,14.05C1631.71,768,1639.3,767.56,1644.3,764.34Z"/><polygon class="cls-3" points="1524.55 919.45 1527.94 919.45 1519.89 851.9 1524.55 851.9 1524.55 919.45"/><path class="cls-4" d="M1515.86,851.9h8.69v67.55h-29.23c0-2.24,9.2-8.5,20.54-8.5Z"/><polygon class="cls-3" points="1623.67 919.45 1603.81 919.45 1595.77 851.9 1623.67 851.9 1623.67 919.45"/><path class="cls-4" d="M1591.73,851.9h31.94v67.55H1571.2c0-2.24,9.19-8.5,20.53-8.5Z"/><ellipse class="cls-3" cx="1549.23" cy="573.51" rx="33.88" ry="23.09"/><path class="cls-4" d="M1597,917.38c-2.84,0-5.28-1.38-5.84-3.28l-22.9-80.77c-.49-1.7-2.91-2.82-5.41-2.49-2,.26-3.5,1.37-3.72,2.74l-12.83,78.67c-.31,2-2.71,3.52-5.63,3.6l-19.24.59a7.54,7.54,0,0,1-4.28-1.06,3.66,3.66,0,0,1-1.92-2.81l-7.38-121.52a3.61,3.61,0,0,1,2.08-3.25l4.27-2.48a7.69,7.69,0,0,1,3.85-1h99.71c3.28,0,5.94,1.81,5.94,4V912.71c0,2.17-2.5,4-5.68,4l-20.77.61Z"/><path class="cls-5" d="M1545.8,770.84c-16.12,0-30.33-2.93-37.5-11.46a3.17,3.17,0,0,1-.81-2.33l9-93.9a2.5,2.5,0,0,0-.93-2.11l-25.29-22.6c-2-1.78-1.49-4.32,1.12-5.67h0l37.94-19.59a3.38,3.38,0,0,0,1.65-1.65l1.11-2.63c.7-1.69,2.91-2.87,5.48-2.94l27.84-.73a7.43,7.43,0,0,1,4.87,1.52l3,2.52a4.28,4.28,0,0,0,1.37.79l46.56,17.54c1.87.71,3,2,3.07,3.5v.06l0,.05C1613.39,662,1614,701,1626.16,753.87c.07,1.65-1.34,3.16-3.56,3.82C1612.52,760.67,1575.85,770.84,1545.8,770.84Z"/><path class="cls-5" d="M1562,649.25h-31.54c-3.27,0-5.93-1.81-5.94-4,0-.08,0-.16,0-.24.47-5.47,1.4-15.89,2.32-24.1,1.34-11.81,18.33-17.63,18.5-17.69l.33-.11,11.47,5,10.67,36.38c.64,2.19-1.44,4.32-4.66,4.76a8.92,8.92,0,0,1-1.16.08Z"/><path class="cls-5" d="M1603.86,672c-3.29,0-5.94-1.84-5.91-4.08a2.73,2.73,0,0,1,0-.41L1603.8,631l11.24-5.61.26,0c.12,0,12.09,1,17.46,10.17,3.82,6.51,9.66,18.54,12.79,25.13,1,2.13-.69,4.41-3.81,5.1l-.43.08-36,6A8.54,8.54,0,0,1,1603.86,672Z"/><path class="cls-4" d="M1550,596.76c7.24-7.81-1.8-29.32-21.52-29.88-4.55-.13-6.3-4.65-7.84-7.57-1.6-3.43-.78-7.17,2.22-10.13a28.59,28.59,0,0,1,12-6.59c20.84-6.52,45.5-.3,55.07,13.91s.44,31-20.4,37.53a56.7,56.7,0,0,1-11.41,2.3Z"/><path class="cls-6" d="M1668.56,981.9a54.06,54.06,0,0,1-.42-16.35c-.86-5-1.87-10.09-2.4-15.18-1.13-10.72,1-20.72,6.22-30.75-.5-.06-1-.1-1.51-.17H1408.31c-.61,5.81-1.12,6.73-1.31,6.6.19,1.72.7,11.6,1.31,61h262.37A15.39,15.39,0,0,1,1668.56,981.9Z"/><g class="cls-7"><g class="cls-8"><path class="cls-9" d="M208.25,1013H1692.08v-8.5H208.25Z"/></g><path class="cls-10" d="M67.67,1015.81H1551.51v2.83H67.67Z"/><path class="cls-11" d="M1813.91,1015.81H330.08v2.83H1813.91Z"/><path class="cls-12" d="M210.12,55.42H1690.21c26.91,0,48.73,19.78,48.73,44.19V946.12c0,24.41-21.82,44.19-48.73,44.19H210.12c-26.91,0-48.73-19.78-48.73-44.19V99.61C161.39,75.2,183.21,55.42,210.12,55.42Z"/><path class="cls-13" d="M11.44,981.81H1885.76v11.34H11.44Z"/><path class="cls-14" d="M311,1013C56.2,1013,14.27,993.15,14.27,993.15l937.15-2.84,930.92,2.84S1840.52,1013,1585.57,1013Z"/></g><path class="cls-15" d="M1441.5,914.86c-10.3-7.08-15.48-20.54-15.69-33.27-.06-4.26,1-9.21,4.7-11.11a6.38,6.38,0,0,1,8.66,3,6.85,6.85,0,0,1,.59,4,64.48,64.48,0,0,1,5.34-11.93c1.84-3.2,4.42-6.52,8-6.83,4.18-.35,7.67,3.82,8.26,8.09s-.92,8.51-2.4,12.54A10.9,10.9,0,0,1,1472.1,871a10.72,10.72,0,0,1,4.16,2c4.09,3.24,5.44,9.21,4.41,14.41s-4.05,9.75-7.39,13.79c-3.91,4.75-8.44,9.08-13.87,11.84s-11.85,3.81-17.62,1.94Z"/></svg>